<svg width="7033" height="1924" viewBox="0 0 7033 1924" fill="none" xmlns="http://www.w3.org/2000/svg">
<g filter="url(#filter0_d_1_3)">
<rect x="365.392" y="243" width="1437.5" height="1437.5" rx="175.305" fill="white"/>
<rect x="365.892" y="243.5" width="1436.5" height="1436.5" rx="174.805" stroke="#827D7D"/>
</g>
<path d="M789.2 1473.05C788.55 1437.67 796.012 1367.45 840.817 1321.12C870.729 1290.2 898.244 1307.36 939.508 1298.06L1195.32 1264.64C1219.67 1257.82 1246.94 1233.47 1246.94 1192.57C1246.94 1153.61 1209.93 1137.05 1202.14 1137.05L953.791 1132.18C896.33 1132.18 829.131 1098.1 784.33 1051.35C725.288 989.74 674.988 825.264 757.061 698.792C816.47 607.244 910.939 582.896 959.635 579.975H1107.67V789.366H968.4C950.22 796.833 917.756 813.714 917.756 850.723C917.756 889.874 943.078 912.08 968.4 919.871C988.521 926.062 1153.16 921.876 1234.59 923.728C1235.71 923.754 1236.75 923.85 1237.85 924.052C1299.01 935.231 1407.31 1003.28 1435.88 1095.18C1471.91 1211.07 1429.99 1353.34 1353.1 1414.62C1302.33 1455.08 1249.44 1475.98 1215.77 1475.98L789.2 1473.05Z" fill="#004CC3"/>
<path d="M1452 792L1452 755.305C1452 658.487 1373.51 580 1276.7 580L964 580L964 616.695C964 713.513 1042.49 792 1139.3 792L1452 792Z" fill="#00C2B3"/>
<path d="M1110.06 450.012H1131.18C1228 450.012 1306.48 528.499 1306.48 625.317V901.674H1285.36C1188.54 901.674 1110.06 823.188 1110.06 726.37V450.012Z" fill="#004CC3"/>
<path d="M1254.73 1260.42L1254.73 1295.65C1254.73 1392.47 1176.24 1470.96 1079.43 1470.96L788.954 1470.96L788.954 1435.72C788.954 1338.9 867.441 1260.42 964.259 1260.42L1254.73 1260.42Z" fill="#004CC3"/>
<path d="M2370.09 1146.61C2326.02 1146.61 2286.36 1139.06 2251.1 1123.95C2215.84 1108.21 2188.14 1086.17 2167.99 1057.84C2147.85 1029.51 2137.77 996.454 2137.77 958.678H2252.99C2255.51 987.01 2266.53 1010.3 2286.04 1028.56C2306.19 1046.82 2334.21 1055.95 2370.09 1055.95C2407.24 1055.95 2436.2 1047.14 2456.98 1029.51C2477.75 1011.25 2488.14 987.954 2488.14 959.623C2488.14 937.587 2481.53 919.644 2468.31 905.793C2455.72 891.942 2439.66 881.239 2420.14 873.684C2401.26 866.129 2374.81 857.944 2340.82 849.13C2298 837.797 2263.06 826.465 2235.99 815.132C2209.55 803.17 2186.88 784.912 2167.99 760.358C2149.11 735.804 2139.66 703.066 2139.66 662.142C2139.66 624.367 2149.11 591.314 2167.99 562.982C2186.88 534.651 2213.32 512.93 2247.32 497.82C2281.32 482.71 2320.67 475.154 2365.37 475.154C2428.96 475.154 2480.9 491.209 2521.19 523.318C2562.12 554.797 2584.78 598.239 2589.19 653.643H2470.2C2468.31 629.718 2456.98 609.257 2436.2 592.258C2415.42 575.259 2388.04 566.76 2354.04 566.76C2323.19 566.76 2298 574.629 2278.49 590.369C2258.97 606.109 2249.21 628.774 2249.21 658.365C2249.21 678.512 2255.19 695.196 2267.15 708.417C2279.75 721.009 2295.49 731.082 2314.37 738.637C2333.26 746.192 2359.07 754.377 2391.81 763.191C2435.25 775.153 2470.51 787.116 2497.58 799.078C2525.29 811.04 2548.58 829.613 2567.47 854.796C2586.99 879.35 2596.74 912.404 2596.74 953.957C2596.74 987.325 2587.62 1018.8 2569.36 1048.39C2551.73 1077.99 2525.6 1101.91 2490.97 1120.17C2456.98 1137.8 2416.68 1146.61 2370.09 1146.61ZM3195.03 619.645V1140H3087.37V1078.62C3070.37 1100.02 3048.02 1117.02 3020.31 1129.61C2993.24 1141.57 2964.28 1147.56 2933.43 1147.56C2892.51 1147.56 2855.68 1139.06 2822.94 1122.06C2790.83 1105.06 2765.33 1079.87 2746.44 1046.51C2728.19 1013.14 2719.06 972.844 2719.06 925.625V619.645H2825.77V909.571C2825.77 956.16 2837.42 992.047 2860.71 1017.23C2884.01 1041.78 2915.8 1054.06 2956.1 1054.06C2996.39 1054.06 3028.18 1041.78 3051.48 1017.23C3075.4 992.047 3087.37 956.16 3087.37 909.571V619.645H3195.03ZM3444.73 695.196C3460.47 668.753 3481.25 648.291 3507.06 633.811C3533.51 618.701 3564.67 611.146 3600.56 611.146V722.583H3573.17C3530.99 722.583 3498.88 733.286 3476.84 754.692C3455.44 776.098 3444.73 813.244 3444.73 866.129V1140H3337.07V619.645H3444.73V695.196ZM3663.63 877.462C3663.63 825.206 3674.33 778.931 3695.74 738.637C3717.78 698.344 3747.37 667.179 3784.51 645.143C3822.29 622.478 3863.84 611.146 3909.17 611.146C3950.09 611.146 3985.67 619.33 4015.89 635.7C4046.74 651.439 4071.29 671.271 4089.55 695.196V619.645H4198.15V1140H4089.55V1062.56C4071.29 1087.11 4046.42 1107.58 4014.94 1123.95C3983.46 1140.31 3947.58 1148.5 3907.28 1148.5C3862.58 1148.5 3821.66 1137.17 3784.51 1114.5C3747.37 1091.21 3717.78 1059.1 3695.74 1018.17C3674.33 976.622 3663.63 929.717 3663.63 877.462ZM4089.55 879.35C4089.55 843.464 4081.99 812.299 4066.88 785.856C4052.4 759.414 4033.2 739.267 4009.28 725.416C3985.35 711.565 3959.54 704.639 3931.84 704.639C3904.13 704.639 3878.32 711.565 3854.4 725.416C3830.47 738.637 3810.95 758.469 3795.84 784.912C3781.36 810.725 3774.12 841.575 3774.12 877.462C3774.12 913.348 3781.36 944.828 3795.84 971.9C3810.95 998.972 3830.47 1019.75 3854.4 1034.23C3878.95 1048.08 3904.76 1055.01 3931.84 1055.01C3959.54 1055.01 3985.35 1048.08 4009.28 1034.23C4033.2 1020.38 4052.4 1000.23 4066.88 973.789C4081.99 946.716 4089.55 915.237 4089.55 879.35ZM4465.16 707.473V995.509C4465.16 1015.03 4469.57 1029.19 4478.38 1038.01C4487.83 1046.19 4503.57 1050.28 4525.6 1050.28H4591.71V1140H4506.71C4458.24 1140 4421.09 1128.67 4395.28 1106C4369.46 1083.34 4356.56 1046.51 4356.56 995.509V707.473H4295.17V619.645H4356.56V490.265H4465.16V619.645H4591.71V707.473H4465.16Z" fill="#00C2B3"/>
<path d="M5183.9 690.474C5183.9 728.879 5175.09 764.136 5157.46 796.245C5139.83 827.724 5112.76 853.222 5076.24 872.74C5039.73 892.257 4994.4 902.016 4940.25 902.016H4840.15V1140H4678.66V477.043H4940.25C4993.14 477.043 5037.84 486.172 5074.35 504.43C5110.87 522.688 5138.26 547.872 5156.52 579.981C5174.77 612.09 5183.9 648.921 5183.9 690.474ZM4927.98 773.579C4958.83 773.579 4981.81 766.339 4996.92 751.859C5012.03 737.378 5019.58 716.916 5019.58 690.474C5019.58 664.031 5012.03 643.569 4996.92 629.089C4981.81 614.608 4958.83 607.368 4927.98 607.368H4840.15V773.579H4927.98ZM5429.46 441.157V1140H5267.98V441.157H5429.46ZM6066.85 613.034V1140H5905.36V1068.23C5888.99 1091.52 5866.64 1110.41 5838.31 1124.89C5810.61 1138.74 5779.76 1145.67 5745.76 1145.67C5705.47 1145.67 5669.89 1136.85 5639.04 1119.22C5608.19 1100.97 5584.27 1074.84 5567.27 1040.84C5550.27 1006.84 5541.77 966.863 5541.77 920.903V613.034H5702.32V899.182C5702.32 934.439 5711.45 961.826 5729.7 981.344C5747.96 1000.86 5772.52 1010.62 5803.37 1010.62C5834.85 1010.62 5859.71 1000.86 5877.97 981.344C5896.23 961.826 5905.36 934.439 5905.36 899.182V613.034H6066.85ZM6397.22 1147.56C6351.26 1147.56 6310.34 1139.69 6274.45 1123.95C6238.56 1108.21 6210.23 1086.8 6189.46 1059.73C6168.68 1032.03 6157.03 1001.18 6154.51 967.178H6314.12C6316 985.436 6324.5 1000.23 6339.61 1011.56C6354.72 1022.9 6373.3 1028.56 6395.33 1028.56C6415.48 1028.56 6430.9 1024.79 6441.61 1017.23C6452.94 1009.05 6458.61 998.657 6458.61 986.066C6458.61 970.955 6450.74 959.938 6435 953.012C6419.26 945.457 6393.76 937.272 6358.5 928.458C6320.73 919.644 6289.25 910.515 6264.06 901.071C6238.88 890.998 6217.16 875.573 6198.9 854.796C6180.64 833.39 6171.51 804.744 6171.51 768.858C6171.51 738.637 6179.7 711.25 6196.07 686.696C6213.07 661.513 6237.62 641.681 6269.73 627.2C6302.47 612.72 6341.19 605.479 6385.89 605.479C6452 605.479 6503.94 621.849 6541.71 654.587C6580.12 687.326 6602.15 730.767 6607.82 784.912H6458.61C6456.09 766.654 6447.9 752.173 6434.05 741.47C6420.83 730.767 6403.2 725.416 6381.17 725.416C6362.28 725.416 6347.8 729.193 6337.72 736.749C6327.65 743.674 6322.61 753.433 6322.61 766.024C6322.61 781.135 6330.48 792.467 6346.22 800.022C6362.59 807.577 6387.78 815.132 6421.78 822.687C6460.81 832.761 6492.6 842.834 6517.16 852.908C6541.71 862.351 6563.12 878.091 6581.38 900.127C6600.26 921.533 6610.02 950.494 6610.65 987.01C6610.65 1017.86 6601.84 1045.56 6584.21 1070.12C6567.21 1094.04 6542.34 1112.93 6509.6 1126.78C6477.49 1140.63 6440.03 1147.56 6397.22 1147.56Z" fill="#004CC3"/>
<path d="M2325.68 1446.54C2325.68 1455.84 2323.49 1464.61 2319.1 1472.86C2314.71 1481.11 2307.69 1487.87 2298.04 1493.13C2288.39 1498.22 2276.01 1500.77 2260.92 1500.77H2227.75V1575H2197.74V1392.05H2260.92C2274.96 1392.05 2286.81 1394.5 2296.46 1399.42C2306.29 1404.15 2313.57 1410.65 2318.31 1418.9C2323.22 1427.14 2325.68 1436.36 2325.68 1446.54ZM2260.92 1476.28C2272.33 1476.28 2280.84 1473.74 2286.46 1468.65C2292.07 1463.38 2294.88 1456.01 2294.88 1446.54C2294.88 1426.53 2283.56 1416.53 2260.92 1416.53H2227.75V1476.28H2260.92ZM2384.31 1380.2V1575H2354.3V1380.2H2384.31ZM2413.71 1501.82C2413.71 1487.25 2416.69 1474.35 2422.66 1463.12C2428.8 1451.89 2437.05 1443.2 2447.4 1437.06C2457.93 1430.74 2469.52 1427.58 2482.15 1427.58C2493.56 1427.58 2503.47 1429.86 2511.9 1434.43C2520.5 1438.82 2527.34 1444.34 2532.43 1451.01V1429.95H2562.7V1575H2532.43V1553.41C2527.34 1560.26 2520.41 1565.96 2511.63 1570.52C2502.86 1575.09 2492.86 1577.37 2481.63 1577.37C2469.16 1577.37 2457.76 1574.21 2447.4 1567.89C2437.05 1561.4 2428.8 1552.45 2422.66 1541.04C2416.69 1529.46 2413.71 1516.38 2413.71 1501.82ZM2532.43 1502.34C2532.43 1492.34 2530.33 1483.65 2526.11 1476.28C2522.08 1468.91 2516.72 1463.3 2510.06 1459.44C2503.39 1455.58 2496.19 1453.64 2488.47 1453.64C2480.75 1453.64 2473.55 1455.58 2466.88 1459.44C2460.21 1463.12 2454.77 1468.65 2450.56 1476.02C2446.53 1483.22 2444.51 1491.81 2444.51 1501.82C2444.51 1511.82 2446.53 1520.6 2450.56 1528.14C2454.77 1535.69 2460.21 1541.48 2466.88 1545.52C2473.73 1549.38 2480.92 1551.31 2488.47 1551.31C2496.19 1551.31 2503.39 1549.38 2510.06 1545.52C2516.72 1541.66 2522.08 1536.04 2526.11 1528.67C2530.33 1521.12 2532.43 1512.35 2532.43 1502.34ZM2637.13 1454.43V1534.72C2637.13 1540.16 2638.36 1544.11 2640.82 1546.57C2643.45 1548.85 2647.84 1549.99 2653.98 1549.99H2672.41V1575H2648.72C2635.2 1575 2624.85 1571.84 2617.65 1565.52C2610.46 1559.21 2606.86 1548.94 2606.86 1534.72V1454.43H2589.75V1429.95H2606.86V1393.89H2637.13V1429.95H2672.41V1454.43H2637.13ZM2760.88 1454.43H2734.02V1575H2703.75V1454.43H2686.64V1429.95H2703.75V1419.69C2703.75 1403.01 2708.14 1390.9 2716.91 1383.36C2725.86 1375.64 2739.82 1371.78 2758.77 1371.78V1396.78C2749.64 1396.78 2743.24 1398.54 2739.55 1402.05C2735.87 1405.38 2734.02 1411.26 2734.02 1419.69V1429.95H2760.88V1454.43ZM2850.39 1577.37C2836.7 1577.37 2824.33 1574.3 2813.27 1568.16C2802.21 1561.84 2793.53 1553.06 2787.21 1541.83C2780.89 1530.42 2777.73 1517.26 2777.73 1502.34C2777.73 1487.6 2780.98 1474.53 2787.47 1463.12C2793.96 1451.71 2802.83 1442.94 2814.06 1436.8C2825.29 1430.65 2837.84 1427.58 2851.7 1427.58C2865.57 1427.58 2878.11 1430.65 2889.35 1436.8C2900.58 1442.94 2909.44 1451.71 2915.93 1463.12C2922.43 1474.53 2925.67 1487.6 2925.67 1502.34C2925.67 1517.09 2922.34 1530.16 2915.67 1541.57C2909 1552.98 2899.88 1561.84 2888.29 1568.16C2876.89 1574.3 2864.25 1577.37 2850.39 1577.37ZM2850.39 1551.31C2858.11 1551.31 2865.3 1549.47 2871.97 1545.78C2878.82 1542.09 2884.35 1536.57 2888.56 1529.2C2892.77 1521.82 2894.87 1512.87 2894.87 1502.34C2894.87 1491.81 2892.86 1482.95 2888.82 1475.76C2884.78 1468.39 2879.43 1462.86 2872.76 1459.17C2866.09 1455.49 2858.9 1453.64 2851.18 1453.64C2843.45 1453.64 2836.26 1455.49 2829.59 1459.17C2823.1 1462.86 2817.92 1468.39 2814.06 1475.76C2810.2 1482.95 2808.27 1491.81 2808.27 1502.34C2808.27 1517.96 2812.22 1530.07 2820.11 1538.67C2828.19 1547.1 2838.28 1551.31 2850.39 1551.31ZM2985.35 1451.01C2989.74 1443.64 2995.53 1437.94 3002.72 1433.9C3010.1 1429.69 3018.78 1427.58 3028.79 1427.58V1458.65H3021.15C3009.39 1458.65 3000.44 1461.63 2994.3 1467.6C2988.33 1473.56 2985.35 1483.92 2985.35 1498.66V1575H2955.34V1429.95H2985.35V1451.01ZM3231.95 1427.58C3243.36 1427.58 3253.54 1429.95 3262.49 1434.69C3271.62 1439.43 3278.72 1446.45 3283.81 1455.75C3289.08 1465.05 3291.71 1476.28 3291.71 1489.45V1575H3261.96V1493.92C3261.96 1480.93 3258.72 1471.02 3252.22 1464.17C3245.73 1457.15 3236.87 1453.64 3225.64 1453.64C3214.4 1453.64 3205.45 1457.15 3198.79 1464.17C3192.29 1471.02 3189.05 1480.93 3189.05 1493.92V1575H3159.3V1493.92C3159.3 1480.93 3156.05 1471.02 3149.56 1464.17C3143.07 1457.15 3134.2 1453.64 3122.97 1453.64C3111.74 1453.64 3102.79 1457.15 3096.12 1464.17C3089.63 1471.02 3086.38 1480.93 3086.38 1493.92V1575H3056.37V1429.95H3086.38V1446.54C3091.29 1440.57 3097.52 1435.92 3105.07 1432.59C3112.62 1429.25 3120.69 1427.58 3129.29 1427.58C3140.87 1427.58 3151.23 1430.04 3160.35 1434.95C3169.48 1439.87 3176.5 1446.98 3181.41 1456.28C3185.8 1447.5 3192.64 1440.57 3201.94 1435.48C3211.25 1430.22 3221.25 1427.58 3231.95 1427.58ZM3508.58 1537.62H3431.97L3418.81 1575H3387.49L3453.03 1391.78H3487.78L3553.33 1575H3521.74L3508.58 1537.62ZM3500.15 1513.14L3470.41 1428.11L3440.4 1513.14H3500.15ZM3655.01 1427.58C3666.42 1427.58 3676.6 1429.95 3685.55 1434.69C3694.67 1439.43 3701.78 1446.45 3706.87 1455.75C3711.96 1465.05 3714.51 1476.28 3714.51 1489.45V1575H3684.76V1493.92C3684.76 1480.93 3681.51 1471.02 3675.02 1464.17C3668.53 1457.15 3659.66 1453.64 3648.43 1453.64C3637.2 1453.64 3628.25 1457.15 3621.58 1464.17C3615.09 1471.02 3611.84 1480.93 3611.84 1493.92V1575H3581.83V1429.95H3611.84V1446.54C3616.75 1440.57 3622.98 1435.92 3630.53 1432.59C3638.25 1429.25 3646.41 1427.58 3655.01 1427.58ZM3742.78 1501.82C3742.78 1487.25 3745.76 1474.35 3751.73 1463.12C3757.87 1451.89 3766.12 1443.2 3776.48 1437.06C3787.01 1430.74 3798.68 1427.58 3811.49 1427.58C3820.96 1427.58 3830.27 1429.69 3839.39 1433.9C3848.69 1437.94 3856.06 1443.38 3861.5 1450.22V1380.2H3891.78V1575H3861.5V1553.15C3856.59 1560.17 3849.75 1565.96 3840.97 1570.52C3832.37 1575.09 3822.46 1577.37 3811.22 1577.37C3798.59 1577.37 3787.01 1574.21 3776.48 1567.89C3766.12 1561.4 3757.87 1552.45 3751.73 1541.04C3745.76 1529.46 3742.78 1516.38 3742.78 1501.82ZM3861.5 1502.34C3861.5 1492.34 3859.4 1483.65 3855.19 1476.28C3851.15 1468.91 3845.8 1463.3 3839.13 1459.44C3832.46 1455.58 3825.26 1453.64 3817.54 1453.64C3809.82 1453.64 3802.63 1455.58 3795.96 1459.44C3789.29 1463.12 3783.85 1468.65 3779.64 1476.02C3775.6 1483.22 3773.58 1491.81 3773.58 1501.82C3773.58 1511.82 3775.6 1520.6 3779.64 1528.14C3783.85 1535.69 3789.29 1541.48 3795.96 1545.52C3802.8 1549.38 3810 1551.31 3817.54 1551.31C3825.26 1551.31 3832.46 1549.38 3839.13 1545.52C3845.8 1541.66 3851.15 1536.04 3855.19 1528.67C3859.4 1521.12 3861.5 1512.35 3861.5 1502.34ZM3921.19 1501.82C3921.19 1487.25 3924.17 1474.35 3930.14 1463.12C3936.28 1451.89 3944.53 1443.2 3954.89 1437.06C3965.42 1430.74 3977 1427.58 3989.63 1427.58C4001.04 1427.58 4010.96 1429.86 4019.38 1434.43C4027.98 1438.82 4034.82 1444.34 4039.91 1451.01V1429.95H4070.19V1575H4039.91V1553.41C4034.82 1560.26 4027.89 1565.96 4019.12 1570.52C4010.34 1575.09 4000.34 1577.37 3989.11 1577.37C3976.65 1577.37 3965.24 1574.21 3954.89 1567.89C3944.53 1561.4 3936.28 1552.45 3930.14 1541.04C3924.17 1529.46 3921.19 1516.38 3921.19 1501.82ZM4039.91 1502.34C4039.91 1492.34 4037.81 1483.65 4033.6 1476.28C4029.56 1468.91 4024.21 1463.3 4017.54 1459.44C4010.87 1455.58 4003.67 1453.64 3995.95 1453.64C3988.23 1453.64 3981.03 1455.58 3974.37 1459.44C3967.7 1463.12 3962.26 1468.65 3958.04 1476.02C3954.01 1483.22 3951.99 1491.81 3951.99 1501.82C3951.99 1511.82 3954.01 1520.6 3958.04 1528.14C3962.26 1535.69 3967.7 1541.48 3974.37 1545.52C3981.21 1549.38 3988.41 1551.31 3995.95 1551.31C4003.67 1551.31 4010.87 1549.38 4017.54 1545.52C4024.21 1541.66 4029.56 1536.04 4033.6 1528.67C4037.81 1521.12 4039.91 1512.35 4039.91 1502.34ZM4139.61 1380.2V1575H4109.6V1380.2H4139.61ZM4169.01 1501.82C4169.01 1487.25 4171.99 1474.35 4177.96 1463.12C4184.1 1451.89 4192.35 1443.2 4202.71 1437.06C4213.24 1430.74 4224.82 1427.58 4237.45 1427.58C4248.86 1427.58 4258.78 1429.86 4267.2 1434.43C4275.8 1438.82 4282.64 1444.34 4287.73 1451.01V1429.95H4318.01V1575H4287.73V1553.41C4282.64 1560.26 4275.71 1565.96 4266.94 1570.52C4258.16 1575.09 4248.16 1577.37 4236.93 1577.37C4224.47 1577.37 4213.06 1574.21 4202.71 1567.89C4192.35 1561.4 4184.1 1552.45 4177.96 1541.04C4171.99 1529.46 4169.01 1516.38 4169.01 1501.82ZM4287.73 1502.34C4287.73 1492.34 4285.63 1483.65 4281.42 1476.28C4277.38 1468.91 4272.03 1463.3 4265.36 1459.44C4258.69 1455.58 4251.49 1453.64 4243.77 1453.64C4236.05 1453.64 4228.85 1455.58 4222.19 1459.44C4215.52 1463.12 4210.08 1468.65 4205.86 1476.02C4201.83 1483.22 4199.81 1491.81 4199.81 1501.82C4199.81 1511.82 4201.83 1520.6 4205.86 1528.14C4210.08 1535.69 4215.52 1541.48 4222.19 1545.52C4229.03 1549.38 4236.22 1551.31 4243.77 1551.31C4251.49 1551.31 4258.69 1549.38 4265.36 1545.52C4272.03 1541.66 4277.38 1536.04 4281.42 1528.67C4285.63 1521.12 4287.73 1512.35 4287.73 1502.34ZM4430.6 1427.58C4442.01 1427.58 4452.19 1429.95 4461.14 1434.69C4470.27 1439.43 4477.37 1446.45 4482.46 1455.75C4487.55 1465.05 4490.1 1476.28 4490.1 1489.45V1575H4460.35V1493.92C4460.35 1480.93 4457.1 1471.02 4450.61 1464.17C4444.12 1457.15 4435.26 1453.64 4424.02 1453.64C4412.79 1453.64 4403.84 1457.15 4397.17 1464.17C4390.68 1471.02 4387.43 1480.93 4387.43 1493.92V1575H4357.42V1429.95H4387.43V1446.54C4392.35 1440.57 4398.58 1435.92 4406.12 1432.59C4413.84 1429.25 4422.01 1427.58 4430.6 1427.58ZM4601.56 1427.58C4612.97 1427.58 4623.14 1429.95 4632.1 1434.69C4641.22 1439.43 4648.33 1446.45 4653.42 1455.75C4658.51 1465.05 4661.05 1476.28 4661.05 1489.45V1575H4631.31V1493.92C4631.31 1480.93 4628.06 1471.02 4621.57 1464.17C4615.07 1457.15 4606.21 1453.64 4594.98 1453.64C4583.75 1453.64 4574.8 1457.15 4568.13 1464.17C4561.63 1471.02 4558.39 1480.93 4558.39 1493.92V1575H4528.38V1429.95H4558.39V1446.54C4563.3 1440.57 4569.53 1435.92 4577.08 1432.59C4584.8 1429.25 4592.96 1427.58 4601.56 1427.58ZM4829.9 1429.95L4740.92 1643.18H4709.86L4739.34 1572.63L4682.22 1429.95H4715.65L4756.46 1540.52L4798.84 1429.95H4829.9ZM4842.54 1501.82C4842.54 1487.25 4845.53 1474.35 4851.49 1463.12C4857.64 1451.89 4865.89 1443.2 4876.24 1437.06C4886.77 1430.74 4898.35 1427.58 4910.99 1427.58C4922.39 1427.58 4932.31 1429.86 4940.73 1434.43C4949.33 1438.82 4956.18 1444.34 4961.27 1451.01V1429.95H4991.54V1575H4961.27V1553.41C4956.18 1560.26 4949.25 1565.96 4940.47 1570.52C4931.7 1575.09 4921.69 1577.37 4910.46 1577.37C4898 1577.37 4886.59 1574.21 4876.24 1567.89C4865.89 1561.4 4857.64 1552.45 4851.49 1541.04C4845.53 1529.46 4842.54 1516.38 4842.54 1501.82ZM4961.27 1502.34C4961.27 1492.34 4959.16 1483.65 4954.95 1476.28C4950.91 1468.91 4945.56 1463.3 4938.89 1459.44C4932.22 1455.58 4925.03 1453.64 4917.31 1453.64C4909.58 1453.64 4902.39 1455.58 4895.72 1459.44C4889.05 1463.12 4883.61 1468.65 4879.4 1476.02C4875.36 1483.22 4873.34 1491.81 4873.34 1501.82C4873.34 1511.82 4875.36 1520.6 4879.4 1528.14C4883.61 1535.69 4889.05 1541.48 4895.72 1545.52C4902.56 1549.38 4909.76 1551.31 4917.31 1551.31C4925.03 1551.31 4932.22 1549.38 4938.89 1545.52C4945.56 1541.66 4950.91 1536.04 4954.95 1528.67C4959.16 1521.12 4961.27 1512.35 4961.27 1502.34ZM5199.11 1392.05V1523.93C5199.11 1540.25 5194.11 1553.15 5184.1 1562.63C5174.28 1572.1 5161.29 1576.84 5145.14 1576.84C5129 1576.84 5115.92 1572.1 5105.92 1562.63C5096.09 1553.15 5091.18 1540.25 5091.18 1523.93H5121.45C5121.63 1532 5123.64 1538.41 5127.51 1543.15C5131.54 1547.89 5137.42 1550.26 5145.14 1550.26C5152.86 1550.26 5158.74 1547.89 5162.78 1543.15C5166.82 1538.23 5168.83 1531.83 5168.83 1523.93V1392.05H5199.11ZM5310.84 1577.37C5297.15 1577.37 5284.78 1574.3 5273.73 1568.16C5262.67 1561.84 5253.98 1553.06 5247.66 1541.83C5241.35 1530.42 5238.19 1517.26 5238.19 1502.34C5238.19 1487.6 5241.43 1474.53 5247.93 1463.12C5254.42 1451.71 5263.28 1442.94 5274.52 1436.8C5285.75 1430.65 5298.29 1427.58 5312.16 1427.58C5326.02 1427.58 5338.57 1430.65 5349.8 1436.8C5361.03 1442.94 5369.9 1451.71 5376.39 1463.12C5382.88 1474.53 5386.13 1487.6 5386.13 1502.34C5386.13 1517.09 5382.8 1530.16 5376.13 1541.57C5369.46 1552.98 5360.33 1561.84 5348.75 1568.16C5337.34 1574.3 5324.71 1577.37 5310.84 1577.37ZM5310.84 1551.31C5318.56 1551.31 5325.76 1549.47 5332.43 1545.78C5339.27 1542.09 5344.8 1536.57 5349.01 1529.2C5353.22 1521.82 5355.33 1512.87 5355.33 1502.34C5355.33 1491.81 5353.31 1482.95 5349.28 1475.76C5345.24 1468.39 5339.89 1462.86 5333.22 1459.17C5326.55 1455.49 5319.35 1453.64 5311.63 1453.64C5303.91 1453.64 5296.72 1455.49 5290.05 1459.17C5283.55 1462.86 5278.38 1468.39 5274.52 1475.76C5270.65 1482.95 5268.72 1491.81 5268.72 1502.34C5268.72 1517.96 5272.67 1530.07 5280.57 1538.67C5288.64 1547.1 5298.73 1551.31 5310.84 1551.31ZM5445.81 1451.54C5450.9 1444.52 5457.83 1438.82 5466.6 1434.43C5475.55 1429.86 5485.47 1427.58 5496.35 1427.58C5509.16 1427.58 5520.74 1430.65 5531.1 1436.8C5541.45 1442.94 5549.61 1451.71 5555.58 1463.12C5561.55 1474.35 5564.53 1487.25 5564.53 1501.82C5564.53 1516.38 5561.55 1529.46 5555.58 1541.04C5549.61 1552.45 5541.36 1561.4 5530.83 1567.89C5520.48 1574.21 5508.99 1577.37 5496.35 1577.37C5485.12 1577.37 5475.11 1575.18 5466.34 1570.79C5457.74 1566.4 5450.9 1560.78 5445.81 1553.94V1575H5415.8V1380.2H5445.81V1451.54ZM5533.99 1501.82C5533.99 1491.81 5531.89 1483.22 5527.68 1476.02C5523.64 1468.65 5518.2 1463.12 5511.35 1459.44C5504.69 1455.58 5497.49 1453.64 5489.77 1453.64C5482.22 1453.64 5475.03 1455.58 5468.18 1459.44C5461.51 1463.3 5456.07 1468.91 5451.86 1476.28C5447.82 1483.65 5445.81 1492.34 5445.81 1502.34C5445.81 1512.35 5447.82 1521.12 5451.86 1528.67C5456.07 1536.04 5461.51 1541.66 5468.18 1545.52C5475.03 1549.38 5482.22 1551.31 5489.77 1551.31C5497.49 1551.31 5504.69 1549.38 5511.35 1545.52C5518.2 1541.48 5523.64 1535.69 5527.68 1528.14C5531.89 1520.6 5533.99 1511.82 5533.99 1501.82ZM5646.85 1577.37C5635.45 1577.37 5625.18 1575.35 5616.06 1571.31C5607.11 1567.1 5600 1561.49 5594.73 1554.47C5589.47 1547.27 5586.66 1539.29 5586.31 1530.51H5617.37C5617.9 1536.65 5620.79 1541.83 5626.06 1546.04C5631.5 1550.08 5638.26 1552.1 5646.33 1552.1C5654.75 1552.1 5661.25 1550.52 5665.81 1547.36C5670.55 1544.02 5672.92 1539.81 5672.92 1534.72C5672.92 1529.28 5670.28 1525.25 5665.02 1522.61C5659.93 1519.98 5651.77 1517.09 5640.54 1513.93C5629.66 1510.94 5620.79 1508.05 5613.95 1505.24C5607.11 1502.43 5601.14 1498.13 5596.05 1492.34C5591.14 1486.55 5588.68 1478.92 5588.68 1469.44C5588.68 1461.72 5590.96 1454.7 5595.52 1448.38C5600.09 1441.89 5606.58 1436.8 5615 1433.11C5623.6 1429.43 5633.43 1427.58 5644.49 1427.58C5660.98 1427.58 5674.23 1431.8 5684.24 1440.22C5694.41 1448.47 5699.85 1459.79 5700.56 1474.18H5670.55C5670.02 1467.68 5667.39 1462.51 5662.65 1458.65C5657.91 1454.79 5651.51 1452.85 5643.43 1452.85C5635.54 1452.85 5629.48 1454.35 5625.27 1457.33C5621.06 1460.31 5618.95 1464.26 5618.95 1469.18C5618.95 1473.04 5620.36 1476.28 5623.16 1478.92C5625.97 1481.55 5629.39 1483.65 5633.43 1485.23C5637.47 1486.64 5643.43 1488.48 5651.33 1490.76C5661.86 1493.57 5670.46 1496.47 5677.13 1499.45C5683.97 1502.26 5689.85 1506.47 5694.77 1512.08C5699.68 1517.7 5702.22 1525.16 5702.4 1534.46C5702.4 1542.71 5700.12 1550.08 5695.56 1556.57C5690.99 1563.07 5684.5 1568.16 5676.08 1571.84C5667.83 1575.53 5658.09 1577.37 5646.85 1577.37ZM5867.76 1498.92C5867.76 1504.36 5867.41 1509.28 5866.71 1513.66H5755.89C5756.76 1525.25 5761.06 1534.55 5768.78 1541.57C5776.51 1548.59 5785.98 1552.1 5797.21 1552.1C5813.36 1552.1 5824.77 1545.34 5831.44 1531.83H5863.82C5859.43 1545.17 5851.44 1556.13 5839.86 1564.73C5828.45 1573.16 5814.24 1577.37 5797.21 1577.37C5783.35 1577.37 5770.89 1574.3 5759.83 1568.16C5748.95 1561.84 5740.35 1553.06 5734.04 1541.83C5727.89 1530.42 5724.82 1517.26 5724.82 1502.34C5724.82 1487.43 5727.81 1474.35 5733.77 1463.12C5739.92 1451.71 5748.43 1442.94 5759.31 1436.8C5770.36 1430.65 5783 1427.58 5797.21 1427.58C5810.9 1427.58 5823.1 1430.57 5833.81 1436.53C5844.51 1442.5 5852.85 1450.92 5858.81 1461.81C5864.78 1472.51 5867.76 1484.88 5867.76 1498.92ZM5836.44 1489.45C5836.26 1478.39 5832.31 1469.53 5824.59 1462.86C5816.87 1456.19 5807.31 1452.85 5795.9 1452.85C5785.54 1452.85 5776.68 1456.19 5769.31 1462.86C5761.94 1469.35 5757.55 1478.21 5756.15 1489.45H5836.44ZM6030.23 1498.92C6030.23 1504.36 6029.88 1509.28 6029.18 1513.66H5918.36C5919.23 1525.25 5923.53 1534.55 5931.25 1541.57C5938.98 1548.59 5948.45 1552.1 5959.69 1552.1C5975.83 1552.1 5987.24 1545.34 5993.91 1531.83H6026.29C6021.9 1545.17 6013.91 1556.13 6002.33 1564.73C5990.92 1573.16 5976.71 1577.37 5959.69 1577.37C5945.82 1577.37 5933.36 1574.3 5922.3 1568.16C5911.42 1561.84 5902.82 1553.06 5896.51 1541.83C5890.36 1530.42 5887.29 1517.26 5887.29 1502.34C5887.29 1487.43 5890.28 1474.35 5896.24 1463.12C5902.39 1451.71 5910.9 1442.94 5921.78 1436.8C5932.83 1430.65 5945.47 1427.58 5959.69 1427.58C5973.37 1427.58 5985.57 1430.57 5996.28 1436.53C6006.98 1442.5 6015.32 1450.92 6021.28 1461.81C6027.25 1472.51 6030.23 1484.88 6030.23 1498.92ZM5998.91 1489.45C5998.73 1478.39 5994.78 1469.53 5987.06 1462.86C5979.34 1456.19 5969.78 1452.85 5958.37 1452.85C5948.01 1452.85 5939.15 1456.19 5931.78 1462.86C5924.41 1469.35 5920.02 1478.21 5918.62 1489.45H5998.91ZM6117.15 1502.61L6184.02 1575H6143.48L6089.78 1512.61V1575H6059.77V1380.2H6089.78V1493.39L6142.43 1429.95H6184.02L6117.15 1502.61ZM6338.47 1498.92C6338.47 1504.36 6338.12 1509.28 6337.41 1513.66H6226.59C6227.47 1525.25 6231.77 1534.55 6239.49 1541.57C6247.21 1548.59 6256.69 1552.1 6267.92 1552.1C6284.06 1552.1 6295.47 1545.34 6302.14 1531.83H6334.52C6330.13 1545.17 6322.15 1556.13 6310.56 1564.73C6299.16 1573.16 6284.94 1577.37 6267.92 1577.37C6254.05 1577.37 6241.59 1574.3 6230.54 1568.16C6219.66 1561.84 6211.06 1553.06 6204.74 1541.83C6198.6 1530.42 6195.53 1517.26 6195.53 1502.34C6195.53 1487.43 6198.51 1474.35 6204.48 1463.12C6210.62 1451.71 6219.13 1442.94 6230.01 1436.8C6241.07 1430.65 6253.7 1427.58 6267.92 1427.58C6281.61 1427.58 6293.8 1430.57 6304.51 1436.53C6315.21 1442.5 6323.55 1450.92 6329.52 1461.81C6335.48 1472.51 6338.47 1484.88 6338.47 1498.92ZM6307.14 1489.45C6306.97 1478.39 6303.02 1469.53 6295.29 1462.86C6287.57 1456.19 6278.01 1452.85 6266.6 1452.85C6256.25 1452.85 6247.38 1456.19 6240.01 1462.86C6232.64 1469.35 6228.26 1478.21 6226.85 1489.45H6307.14ZM6398.01 1451.01C6402.4 1443.64 6408.19 1437.94 6415.38 1433.9C6422.75 1429.69 6431.44 1427.58 6441.44 1427.58V1458.65H6433.81C6422.05 1458.65 6413.1 1461.63 6406.96 1467.6C6400.99 1473.56 6398.01 1483.92 6398.01 1498.66V1575H6368V1429.95H6398.01V1451.01ZM6506.67 1392.05L6503.25 1519.72H6478.24L6474.82 1392.05H6506.67ZM6491.67 1576.84C6486.23 1576.84 6481.67 1575 6477.98 1571.31C6474.29 1567.63 6472.45 1563.07 6472.45 1557.63C6472.45 1552.19 6474.29 1547.62 6477.98 1543.94C6481.67 1540.25 6486.23 1538.41 6491.67 1538.41C6496.93 1538.41 6501.41 1540.25 6505.09 1543.94C6508.78 1547.62 6510.62 1552.19 6510.62 1557.63C6510.62 1563.07 6508.78 1567.63 6505.09 1571.31C6501.41 1575 6496.93 1576.84 6491.67 1576.84Z" fill="#004CC3"/>
<defs>
<filter id="filter0_d_1_3" x="265.392" y="163" width="1637.5" height="1637.5" filterUnits="userSpaceOnUse" color-interpolation-filters="sRGB">
<feFlood flood-opacity="0" result="BackgroundImageFix"/>
<feColorMatrix in="SourceAlpha" type="matrix" values="0 0 0 0 0 0 0 0 0 0 0 0 0 0 0 0 0 0 127 0" result="hardAlpha"/>
<feOffset dy="20"/>
<feGaussianBlur stdDeviation="50"/>
<feComposite in2="hardAlpha" operator="out"/>
<feColorMatrix type="matrix" values="0 0 0 0 0.665413 0 0 0 0 0.633453 0 0 0 0 0.633453 0 0 0 0.25 0"/>
<feBlend mode="normal" in2="BackgroundImageFix" result="effect1_dropShadow_1_3"/>
<feBlend mode="normal" in="SourceGraphic" in2="effect1_dropShadow_1_3" result="shape"/>
</filter>
</defs>
</svg>
