<svg xmlns="http://www.w3.org/2000/svg" viewBox="0 0 32 32" width="32" height="32" shape-rendering="crispEdges">
  <!-- Coin outer border (black) -->
  <path d="M12 2h8v2h-8zm-4 2h4v2H8zm8 0h4v2h-4zm-8 4h2v2H8zm14 0h2v2h-2zm-16 4h2v8H6zm18 0h2v8h-2zm-16 10h2v2H8zm14 0h2v2h-2zm-12 2h4v2h-4zm8 0h4v2h-4zm-8 2h8v2h-8z" fill="#000000" />
  
  <!-- Outer Gold Fill -->
  <path d="M12 4h8v2h-8zm-2 2h12v2H10zm-2 2h2v16H8zm16 0h2v16h-2zm-14 16h12v2H10zm2 2h8v2h-8z" fill="#FDD026" />
  
  <!-- Light Highlight (top/left) -->
  <path d="M12 6h6v2h-6zm-2 2h2v12h-2z" fill="#FFFBEB" />
  
  <!-- Coin Inner Ring (engraved detail) -->
  <path d="M14 10h4v2h-4zm-2 2h2v8h-2zm6 0h2v8h-2zm-4 8h4v2h-4z" fill="#D97706" />
  
  <!-- Coin Center (lighter inner fill) -->
  <path d="M14 12h4v6h-4z" fill="#F59E0B" />
  <path d="M14 12h2v4h-2z" fill="#FDD026" />
</svg>
